<?xml version="1.0" encoding="UTF-8"?>
<svg width="1060" height="1320" version="1.1" xmlns="http://www.w3.org/2000/svg" xmlns:cc="http://creativecommons.org/ns#" xmlns:dc="http://purl.org/dc/elements/1.1/" xmlns:rdf="http://www.w3.org/1999/02/22-rdf-syntax-ns#">
 <metadata>
  <rdf:RDF>
   <cc:Work rdf:about="">
    <dc:format>image/svg+xml</dc:format>
    <dc:type rdf:resource="http://purl.org/dc/dcmitype/StillImage"/>
    <dc:title/>
   </cc:Work>
  </rdf:RDF>
 </metadata>
 <g stroke-width="4">
  <path d="m302.17 18.911c-18.976 0.2334-22.576 18.401-35.6 15.523-6.9263-1.5304-16.524 5.1329-17.461 12.164-1.5765 11.825-15.166 5.7586-20.621 24.625-1.2156 4.2042 2.4593 6.8514 2.0566 10.344-0.64751 5.6158-4.5194 1.8674-7.0059 15.443-2.7631 15.086 8.4023 18.859 8.4023 18.859s-1.7176 5.2703-1.4141 7.9414c0.54163 4.7655 4.3301 6.2148 4.3301 6.2148s-2.1008 6.4905-0.97656 9.4512c0.95036 2.5027 5.9219 5.4258 5.9219 5.4258s-0.31369 5.5127 0.97461 10.307c0.90311 3.3605 7.8711 6.8574 7.8711 6.8574l7.6484 20.223s3.5918 37.855-7.2793 41.686c-18.7 6.5892-45.615 28.207-45.615 28.207s-16.279-5.0758-46.559 14.57c-24.876 16.14-25.75 35.328-25.75 35.328s-12.472 4.5901-17.898 8.3066c-6.838 4.683-17.912 17.244-17.912 17.244s-10.418-37.226-9.957-56.268c0.60733-25.1 2.265-59.185 16.697-73.447 14.866-14.691 19.147-38.384 33.854-47.094 6.5651-3.8883 0.29179-10.111-5.4766-9.8496-9.1412 0.414-16.38 4.4285-22.092 11.76-3.0281 3.8865-11.104 9.7559-11.104 9.7559s-5.6137-15.573-5.0566-28.289c0.47079-10.747 1.0092-28.954 0.78711-42.641-0.11377-7.0104-4.3069-10.092-7.2051-7.9824-3.7898 2.7586-4.1331 12.085-4.6445 25.186-0.45581 11.677-6.5488 23.727-6.5488 23.727s-3.2223-15.123-1.2305-32.094c1.6929-14.423 7.8584-27.752-2.9785-26.207-0.73958 0.1054-7.7656 10.065-9.2344 25.467-1.6978 17.803-4.5488 34.955-4.5488 34.955s-7.9916-3.0819-5.6211-15.19c4.5569-23.274 9.3397-33.266 3.3242-34.598-7.5674-1.6752-11.712 13.322-13.863 28.217-2.1509 14.895-2.3887 30.105-2.3887 30.105s-3.3328-7.8387-5.1797-18.152c-1.8468-10.314-2.207-23.102-4.3027-23.184-8.5292-0.3327-7.9904 15.736-8.166 24.27-0.39749 19.315 5.4238 27.836 5.4238 27.836s-2.7191 10.064-1.1738 19.336c4.9007 29.404 15.016 46.982 15.016 46.982s-11.718 71.471-12.607 117.42c-0.96458 49.811 5.7383 51.646 5.7383 51.646s0.37737 10.363 3.252 22.145c3.2149 13.177 23.123 10.373 23.123 10.373s14.304 4.0472 25.715 1.0371c13.518-3.566 26.65-13.48 26.65-13.48s24.902-4.055 39.779-15.387c14.445-11.002 23.133-30.699 23.133-30.699s1.5666 33.279 5.377 52.772c4.0042 20.484 12.166 35.591 12.475 61.361 0.31431 26.236-8.0644 32.863-10.99 44.652-2.8818 11.612 1.4102 22.469 1.4102 22.469 0 0-7.1031 14.665-7.0449 32.211 0.0243 7.3379 1.9999 14.859 0.36133 22.012-3.6306 15.848-9.7978 27.766-10.348 42.258-2.0904 55.1 12.074 102.05 10.795 125.56-3.1352 57.613 16.141 81.877 16.141 81.877s-2.1532 21.825 5.25 42.201c2.8023 7.7128 8.6211 23.06 8.6211 23.06s-7.5847 15.796-4.8477 52.164c4.551 60.47 30.359 121.8 31.498 179.18 0.27304 13.751-6.3244 22.029-21.836 37.826-13.178 13.42-22.696 22.772-29.061 23.279-4.2312 0.3373-10.1-2.2041-12.287 3.3457-3.1347 7.954-8.3581 12.712-8.9648 15.488-1.5603 7.1403-2.2373 9.7924-2.3242 16.648-0.0634 5.0001-1.0751 7.4532 2.1152 10.9 4.469 4.8288 11.864 12.077 19.619 12.602 17.576 1.1892 18.244-10.227 18.244-10.227s15.718 4.9123 26.047-3.7617c5.7949-4.8663 20.271-34.824 20.271-34.824s46.289-9.7806 48.318-22.238c2.6876-16.501-3.3027-19.569-3.6133-35.824-0.60159-31.491-8.9824-94.062-8.9824-94.062s4.638-17.663 7.0371-32.744c2.1238-13.35 2.6152-40.471 2.6152-40.471s6.1986-17.657 6.2012-45.156c3e-3 -26.475-17.09-54.396-17.09-54.396s5.1284-11.019 6.8984-28.894c4.1742-42.156-0.63281-89.666-0.63281-89.666s3.9566-23.986 4.8086-36.094c0.62822-8.927 0.2168-26.846 0.2168-26.846s1.5176 0.3459 2.2891 0.4395c5.0836 0.6164 8.25-1.3262 8.25-1.3262s1.543 14.723 3.2363 21.908c2.6943 11.433 9.1099 21.891 10.959 33.49 7.1739 45.002 4.3943 84.335 12.904 128.53 1.8362 9.5354 10.432 27.201 10.432 27.201s-8.1792 27.899-6.4297 57.084c2.0222 33.734 15.754 56.191 15.754 56.191s-1.4326 20.991 2.7695 42.916c3.0179 15.747 11.545 46.693 11.545 46.693s-3.4241 23.572-3.6055 40.178c-0.0678 6.2107 1.1641 18.596 1.1641 18.596s-7.9689 24.819-5.4883 31.049c2.6865 6.7472 20.953 18.686 20.953 18.686s-0.93063 15.366 0.79492 28.393c0.55756 4.2092 7.0876 4.7653 10.117 7.7403 6.2161 6.1039 3.4707 17.401 16.256 20.465 12.58 3.0148 17.869-6.4981 17.869-6.4981s4.0991 2.3624 6.0078 1.5625c6.4654-2.7095 3.6094-9.5293 3.6094-9.5293s4.8066 1.0549 7.5469-3.2343c3.1353-4.9078 6.1385-10.609 5.9395-16.43-0.28143-8.2296-5.3478-9.4391-9.9648-22.606-1.8719-5.3379-12.26-22.653-20.262-43.107-5.2176-13.337-14.992-13.354-14.992-13.354s10.472-4.0389 8.2402-15.828c-1.5908-8.4022-0.66294-17.214 0.79492-25.641 7.3914-42.722 21.838-96.831 21.16-133.13-1.3818-73.948-18.525-89.787-18.525-89.787s2.519-23.939 3.5039-35.934c1.2474-15.192-2.416-30.826-2.416-30.826s8.843-14.703 10.244-25.094c1.6033-11.89 5.1274-23.475 6.6152-35.381 0.81694-6.537 1.2598-19.723 1.2598-19.723s8.2732-5.7414 11.152-9.7539c1.3813-1.925 2.7207-6.5664 2.7207-6.5664s4.0609 2.4294 5.7012-2.8047c4.1267-13.168 11.283-18.513 13.328-28.934 2.4195-12.328 2.3281-48.67 2.3281-48.67s9.6579-42.174 15.293-74.451c3.5167-17.02 9.8008-33.523 11.789-50.789 4.6524-40.402-3.3378-62.554-7.3574-78.801-6.4023-25.878-2.7735-51.671-4.7383-79.834-1.2447-17.841-9.8477-33.441-9.8477-33.441s8.7552-44.762-15.189-73.77c-13.999-16.958-20.278-22.63-36.852-25.211-9.7654-1.5206-15.855 0.2266-15.855 0.2266s-11.198-13.681-27.627-23.344c-17.968-10.567-29.443-28.803-29.443-28.803s-0.21649-15.304 1.5488-26.498c1.4586-9.2484 10.365-26.938 10.365-26.938s7.3664-5.1068 9.1426-8.9961c4.7373-10.374-2.4062-17.223-2.4062-17.223s13.302-10.312 12.295-26.734c-1.0091-16.459-14.67-27.703-14.67-27.703s-4.123-16.829-10.252-22.205c-7.3204-6.4214-14.67-3.9257-14.67-3.9257s-5.8628-19.902-33.812-19.559zm109.66 418.22c-0.0143-0.1001 1.1658 3.6626 2.9961 9.7051 1.8302 6.0424 4.3113 14.364 6.9004 23.381 2.7996 9.7501 10.879 15.471 10.879 15.471s-7.4903 12.882-3.9414 44.52c1.4208 12.666 3.6712 25.258 4.3965 37.982 1.72 30.178-4.7246 72.322-4.7246 72.322l-8.6562 7.6993s-4.033-37.12-5.5762-58.004c-2.4049-32.546-13.678-34.188-13.678-34.188s7.2656-5.5392 6.8008-23.852c-0.53526-21.087-9.6008-34.94-8.3613-52.674 1.0296-14.732 12.965-42.363 12.965-42.363z" stroke="#000"/>
  <path d="m346.18 172.19s-22.396 26.982-40.027 38.193c-4.1724 2.6532-17.33 3.2993-23.218 1.5833-17.222-5.02-26.636-29.682-26.636-29.682l-7.6488-20.223s-3.5956-22.424-4.0221-39.428c-0.19456-7.7569 1.6486-23.22 1.6486-23.22s13.123 3.4735 18.967-5.3595c5.8592-8.8556 16.586-17.206 16.586-17.206s9.2016 9.9006 21.624 7.8388c13.787-2.2882 26.205-19.927 26.205-19.927s-7.8771 19.314-3.0509 30.933c4.5583 10.974 20.999 14.851 24.018 26.344 3.3565 12.777-4.4463 50.152-4.4463 50.152z" fill="none" stroke="#fff"/>
  <path d="m419.68 648.21s-10.728 7.402-15.673 18.692c-2.2683 5.1782-2.9814 11.026-5.748 15.956-7.0245 12.517-21.771 12.277-20.924 18.999 0.62759 4.9779 6.2519 10.213 12.384 8.5562 10.228-2.7637 27.042-16.701 27.042-16.701s-0.0751 15.524-3.0973 29.033c-3.8807 17.347-19.313 36.735-13.92 41.463 2.4201 2.1212 9.2778-2.6702 9.2778-2.6702s2.2341 3.904 4.1939 4.2467c2.8439 0.4972 7.8158-3.7321 7.8158-3.7321s2.3904 2.0763 3.8764 2.3537c1.4388 0.2686 4.3228-0.7713 4.3228-0.7713v0" fill="none" stroke="#fff" stroke-linecap="round"/>
  <path d="m786.19 112c-16.667-0.29779-35.02 16.088-35.02 16.088s-25.513-0.57949-44.676 38.6c-8.173 16.71-2.7014 18.972-7.4588 45.609-3.4826 19.5 12.543 43.639 13.463 63.426 0.81491 17.539-8.5137 54.592-8.5137 54.592s-29.358 7.083-40.652 22.184c-30.136 40.294-5.3034 105.45-21.668 148.33-11.731 30.745-15.927 39.272-17.412 85.725s7.1686 120.76-7.8418 141.31c-7.5052 10.277-11.054 16.502 0.5625 31.268 6.7029 8.5197 8.836 18.94 16.783 26.85 5.8499 5.8223 18.021 16.978 18.021 16.978l34.68 101.02 6.9512 39.598s-14.111 29.512 3.4355 102.63c10.295 42.899 26.916 129.59 26.916 129.59s-8.8342 8.3073-22.033 32.174c-5.3584 9.6892-16.952 6.3207-25.971 20.707-5.826 9.2933-0.79964 22.055 0.87696 32.895 1.0784 6.9724 4.0142 2.8344 5.6836 4.6152 2.696 2.8759-0.0174 9.1106 6.8477 9.6426 8.7046 0.6746 23.498-11.572 23.498-11.572s12.285 0.4142 16.938-7.7401c6.0451-10.596 12.289-30.834 12.289-30.834 1e-5 0 27.887-12.206 33.461-17.936 15.664-16.099-11.186-48.586-11.186-48.586s1.8807-80.706 5.7109-120.85c0.95855-10.047 4.2938-19.876 4.3164-29.969 0.0406-18.127-4.2284-36.032-7.5098-53.859-1.015-5.5146-3.3734-10.803-3.7617-16.396-1.2213-17.592 5.9042-20.772 6.6074-31.82 1.1629-18.269-5.125-36.695-4.9102-55 0.27102-23.095 3.8381-41.632 5.1641-63.959 1.326-22.327 0.41211-48.445 0.41211-48.445s6.4708 21.194 15.74 44.041c9.2694 22.847 21.337 47.347 27.311 66.135 8.0775 25.407 11.11 50.303 20.559 74.148 9.0421 22.821 34.268 65.182 34.268 65.182s-6.1188 23.025-3.4336 36.449c6.2445 31.218 34.611 72.031 50.145 99.42 15.514 27.354 30.717 75.668 30.717 75.668s-7.9012 21.606-4.957 29.877c4.2755 12.011 28.988 16.121 28.988 16.121s12.273 32.713 23.623 38.898c7.5792 4.1307 13.915 10.312 21.498 14.436 8.5503 4.6503 26.786-1.9047 21.184-12.037-1.0179-1.8408-0.7634-4.275-0.2187-6.3067 2.1861-8.1532 6.359-21.481 2.498-31.158-4.3932-11.011-26.467-23.758-26.467-23.758s-25.434-35.9-31.885-56.559c-10.925-34.987-10.053-82.309-17.264-126.09-6.8623-41.662-28.172-67.213-28.172-67.213 1e-5 0-3.0945-23.661-4.7441-35.478-2.1187-15.177-11.526-38.315-11.25-48.977 0.78858-30.461-0.25674-52.369 0.0606-80.728 0.23651-21.139-5.0059-35.16-5.0059-35.16s3.0258-4.611 2.9375-8.3007c-0.14022-5.8621-3.7793-13.828-3.7793-13.828-1e-5 0 3.1062-22.422 2.2676-32.764s-7.2988-29.285-7.2988-29.285 3.5995-7.9315 5.6777-18.629 2.6353-24.161 5.2441-31.746c10.721-31.174 14.022-63.197 13.193-96.152-0.61908-24.616-12.293-57.878-11.994-82.5 0.57657-47.503-1.9721-104.33-26.824-123.84-7.5424-5.9199-23.951-15.93-23.951-15.93s-7.8792-24.259-9.2715-49.314c-1.3923-25.055 3.7024-50.908-1.6523-80.186-3.3403-18.263-15.936-29.357-25.502-45.33-12.101-20.207-18.784-36.74-46.244-35.971h-5e-5zm34.814 114.3s0.3017 34.924-1.0059 50.223c-0.66073 7.7305 6.4336 22.369 6.4336 22.369 0 0-15.348-4.7895-18.172-20.195-2.2963-12.527-0.13477-38.207-0.13477-38.207s5.1622-0.38116 7.3086-2.7461c2.1464-2.3649 5.5703-11.443 5.5703-11.443zm46.41 248.45s2.4302 20.686 10.324 32.938c7.5107 11.656 1.7995 21.242 4.1777 44.963 2.0005 19.953-3.0684 44.992-3.0684 44.992 0 0-4.4797-19.498-11.098-34.451s-15.374-25.36-15.236-31.525c0.43787-19.606 14.9-56.916 14.9-56.916zm-176.26 2.3574 6.832 2.3672s3.9989 24.284 2.0078 37.918c-2.2529 15.427-22.785 40.848-22.785 40.848s2.5693-29.638 8.4375-43.021c6.5016-14.828 5.5078-38.111 5.5078-38.111z" stroke="#000"/>
  <g fill="none" stroke="#fff" stroke-linecap="round">
   <path d="m703.99 330.32s13.595-7.9037 19.859-12.625c6.8126-5.1346 15.527-16.379 15.527-16.379l1.6152-26.762c1.2661 1.2197 2.4482 2.0964 3.4785 2.457 12.087 4.2302 26.022-3.6122 37.072-10.084 14.595-8.5474 21.387-14.199 23.154-26.498 1.5586-10.848 1.2207-32.857 1.2207-32.857s-9.3881-6.3797-11.654-11.291c-4.3107-9.3424-3.8062-15.911-11.951-21.662-6.7059-4.735-10.218 0.98071-23.848-6.1543-7.5301-3.942-13.791-21.447-13.791-21.447s-5.5907 8.6594-22.609 26.426c-5.9756 6.2382-3.6285 20.674-4.3438 37.752-0.57319 13.686-1.2204 24.606 7.5684 40.393 4.0255 7.2309 10.289 17.515 15.303 22.564"/>
   <path d="m651.78 802.97s-13.017-45.273-13.382-68.552c-0.40162-25.649 9.4862-50.466 12.372-75.955 2.2547-19.914-0.11358-40.354 3.8462-60 4.3675-21.669 22.599-40.224 22.599-40.224"/>
   <path d="m913.39 775.78s-8.3319 6.6676-12.138 14.634c-3.2118 6.7226-7.4913 7.358-11.15 11.978-8.3386 10.529-10.32-5.3666-10.32-5.3666s-9.8604 7.4989-7.6808-3.3792c2.1036-10.499 8.0873-20.206 7.7807-30.787-0.22544-7.7805-7.0229-22.27-7.0229-22.27s-4.6537 32.771-15.082 29.309c-9.0378-3 1.9359-43.824 1.9359-43.824s-0.73359-12.304 0.9138-18.124c4.0724-14.388 13.611-23.021 14.386-34.411 0.91258-13.422 1.1922-26.882 1.4315-40.332 0.23461-13.186 2.407-35.563 2.407-35.563"/>
  </g>
 </g>
</svg>
