<?xml version="1.0" encoding="UTF-8" standalone="no"?>
<!DOCTYPE svg PUBLIC "-//W3C//DTD SVG 1.1//EN" "http://www.w3.org/Graphics/SVG/1.1/DTD/svg11.dtd">
<svg width="1280" height="740" viewBox="0 0 1280 740" version="1.1" xmlns="http://www.w3.org/2000/svg" xmlns:xlink="http://www.w3.org/1999/xlink" xml:space="preserve" xmlns:serif="http://www.serif.com/" style="fill-rule:evenodd;clip-rule:evenodd;stroke-linejoin:round;stroke-miterlimit:2;">
    <g transform="matrix(0.100018,-1.23953e-19,1.23953e-19,-0.10103,-0.087108,740.301)">
        <path d="M3159,7315C3110,7293 3093,7261 3110,7220C3129,7174 3163,7153 3248,7135C3290,7126 3375,7102 3435,7083C3591,7034 3636,7028 3765,7041C3936,7058 3921,7060 3936,7015C3943,6993 3999,6804 4060,6595C4121,6386 4180,6188 4190,6155C4266,5913 4430,5338 4426,5331C4423,5326 4405,5319 4385,5316C4366,5312 4348,5305 4346,5301C4341,5293 4365,5196 4376,5178C4379,5174 4398,5177 4420,5185C4442,5193 4461,5196 4463,5192C4465,5188 4480,5137 4495,5078L4523,4971L4333,4768C4228,4656 4094,4512 4034,4448C3970,4378 3918,4330 3907,4330C3897,4330 3872,4348 3852,4371C3812,4415 3773,4440 3741,4440C3730,4440 3711,4454 3699,4471C3676,4503 3611,4539 3574,4540C3563,4540 3543,4552 3529,4566C3496,4601 3458,4620 3417,4620C3395,4620 3376,4628 3364,4641C3335,4674 3295,4690 3247,4690C3218,4690 3198,4696 3189,4707C3168,4731 3116,4750 3068,4750C3042,4750 3011,4758 2990,4772C2965,4787 2936,4794 2890,4795C2854,4796 2805,4805 2780,4814C2745,4828 2728,4829 2696,4821C2666,4814 2650,4815 2629,4826C2597,4842 2518,4845 2491,4831C2479,4824 2459,4826 2428,4838C2385,4853 2378,4853 2328,4837C2286,4824 2266,4823 2235,4831C2202,4839 2185,4838 2150,4825C2124,4815 2080,4809 2045,4809C2002,4810 1974,4805 1945,4790C1921,4778 1886,4770 1855,4770C1820,4770 1792,4762 1761,4745C1738,4731 1703,4720 1685,4720C1645,4720 1602,4705 1577,4682C1567,4673 1531,4660 1497,4653C1454,4644 1428,4632 1405,4610C1388,4594 1364,4580 1352,4580C1317,4580 1268,4555 1236,4522C1218,4502 1193,4489 1167,4485C1138,4480 1116,4466 1086,4435C1063,4412 1027,4387 1006,4379C972,4367 900,4299 900,4279C900,4275 888,4269 874,4266C832,4255 802,4231 778,4189C767,4168 744,4146 728,4139C695,4125 643,4069 635,4037C632,4025 612,4005 591,3993C565,3978 545,3955 529,3923C517,3897 487,3857 464,3835C437,3809 418,3780 411,3754C404,3729 390,3706 375,3696C346,3677 310,3611 310,3577C310,3564 298,3543 284,3529C250,3497 231,3459 229,3418C227,3398 216,3374 198,3355C171,3326 145,3237 157,3217C160,3212 153,3199 142,3187C114,3157 100,3117 100,3068C100,3043 91,3013 78,2991C61,2965 55,2940 55,2895C55,2860 47,2815 36,2787C20,2747 19,2731 27,2694C33,2670 34,2647 29,2645C25,2642 17,2617 11,2590C3,2553 3,2531 13,2503C23,2471 23,2458 10,2423C-2,2387 -2,2375 9,2338C16,2314 21,2282 19,2265C14,2201 17,2154 30,2125C37,2109 42,2069 41,2037C39,1994 43,1971 59,1945C73,1920 79,1894 78,1856C77,1813 82,1793 102,1763C119,1738 129,1706 132,1669C135,1629 144,1604 163,1578C178,1559 190,1531 190,1516C190,1480 212,1431 244,1397C258,1382 270,1358 270,1344C270,1310 305,1243 334,1225C350,1215 360,1196 364,1169C369,1140 382,1117 414,1085C438,1061 463,1026 470,1006C476,986 501,953 527,930C553,908 581,872 591,850C603,823 624,801 654,782C679,767 704,743 711,727C725,693 782,642 815,634C829,631 840,623 840,618C840,594 884,550 929,527C956,514 992,487 1009,467C1027,447 1062,423 1088,413C1114,404 1149,381 1166,363C1198,329 1236,310 1273,310C1285,310 1306,298 1319,284C1352,250 1393,230 1435,228C1459,227 1478,218 1496,199C1522,172 1547,163 1610,156C1624,155 1656,142 1681,127C1713,108 1741,100 1775,100C1807,100 1835,93 1859,78C1885,61 1910,55 1955,55C1988,55 2024,50 2035,43C2068,24 2125,18 2164,28C2184,34 2202,35 2205,30C2208,25 2233,17 2260,11C2299,3 2319,3 2350,14C2372,22 2393,24 2395,19C2406,1 2491,-3 2531,13C2561,25 2578,26 2607,18C2645,8 2676,11 2725,31C2742,38 2781,42 2813,41C2856,39 2879,43 2905,59C2930,73 2956,79 2994,78C3037,77 3057,82 3087,102C3112,119 3144,129 3181,132C3221,135 3246,144 3272,163C3291,178 3319,190 3334,190C3370,190 3419,212 3453,244C3468,258 3492,270 3506,270C3540,270 3607,305 3625,334C3635,350 3654,360 3681,364C3710,369 3733,382 3765,414C3789,438 3824,463 3844,470C3864,476 3897,501 3920,527C3942,553 3978,581 4000,591C4027,603 4049,624 4068,654C4083,679 4107,704 4123,711C4157,725 4208,782 4216,815C4219,829 4227,840 4232,840C4256,840 4300,884 4321,928C4333,954 4360,990 4381,1008C4402,1026 4426,1061 4436,1087C4446,1113 4471,1151 4491,1171C4517,1197 4531,1222 4537,1252L4546,1295L5050,1341C5589,1391 5641,1396 5680,1411C5694,1416 5715,1421 5727,1423C5746,1426 5801,1449 5840,1472C5848,1476 5866,1486 5880,1492C5924,1514 6016,1588 6063,1640C6130,1714 6180,1812 6205,1916C6207,1921 6268,1935 6341,1946C6446,1961 6520,1964 6685,1963C6916,1960 6945,1965 6986,2013C7033,2069 7001,2144 6916,2174C6886,2185 6812,2190 6650,2194C6495,2197 6391,2205 6317,2218C6207,2237 6190,2246 6190,2285C6190,2302 6165,2363 6138,2410C6134,2418 6125,2436 6118,2450C6111,2464 6100,2482 6093,2491C6082,2505 6224,2684 7186,3864L8292,5221L8433,5330C8519,5397 8577,5435 8579,5427C8582,5421 8600,5366 8620,5305L8657,5195L8779,5164L8902,5133L8961,5024C8994,4962 9025,4916 9032,4917C9040,4919 9071,4852 9118,4732C9157,4628 9190,4539 9190,4533C9190,4515 9155,4492 9116,4484C9088,4479 9064,4464 9036,4435C9013,4412 8977,4387 8956,4379C8922,4367 8850,4299 8850,4279C8850,4275 8838,4269 8824,4266C8782,4255 8752,4231 8728,4189C8716,4168 8698,4148 8688,4144C8655,4134 8602,4080 8591,4047C8584,4026 8566,4007 8541,3993C8514,3978 8495,3956 8479,3923C8467,3897 8440,3860 8419,3842C8397,3823 8374,3790 8364,3762C8354,3736 8334,3705 8319,3693C8292,3670 8260,3605 8260,3572C8260,3562 8248,3543 8234,3529C8200,3498 8182,3461 8177,3417C8175,3398 8162,3368 8147,3350C8118,3316 8110,3295 8107,3238C8106,3218 8097,3193 8089,3183C8060,3151 8050,3122 8050,3074C8050,3043 8042,3015 8028,2991C8012,2965 8005,2939 8005,2895C8004,2862 7998,2822 7991,2805C7971,2757 7967,2726 7978,2687C7984,2667 7985,2648 7980,2645C7963,2634 7950,2543 7962,2510C7970,2486 7969,2465 7959,2423C7948,2374 7948,2361 7962,2323C7974,2289 7976,2270 7968,2243C7958,2204 7961,2174 7981,2125C7988,2109 7992,2069 7991,2037C7989,1994 7993,1971 8009,1944C8024,1919 8030,1894 8029,1855C8028,1812 8033,1792 8052,1762C8069,1738 8079,1706 8082,1669C8085,1629 8094,1604 8113,1578C8128,1559 8140,1531 8140,1516C8140,1480 8162,1431 8194,1397C8208,1382 8220,1358 8220,1344C8220,1310 8255,1243 8284,1225C8300,1215 8310,1196 8314,1169C8319,1140 8332,1117 8364,1085C8388,1061 8413,1026 8420,1006C8426,986 8451,953 8477,930C8503,908 8531,872 8541,850C8553,823 8574,801 8604,782C8629,767 8654,743 8661,727C8675,693 8732,642 8765,634C8779,631 8790,623 8790,618C8790,594 8834,550 8879,527C8906,514 8942,487 8959,467C8977,447 9011,424 9038,414C9064,405 9093,386 9104,373C9126,344 9190,310 9222,310C9235,310 9256,298 9269,284C9302,250 9343,230 9385,228C9409,227 9428,218 9446,199C9472,172 9497,163 9560,156C9574,155 9606,142 9631,127C9663,108 9691,100 9725,100C9757,100 9785,93 9809,78C9835,61 9860,55 9905,55C9938,55 9974,50 9985,43C10018,24 10075,18 10114,28C10134,34 10152,35 10155,30C10158,25 10183,17 10210,11C10249,3 10269,3 10300,14C10322,22 10343,24 10345,19C10356,1 10441,-3 10481,13C10511,25 10528,26 10557,18C10595,8 10626,11 10675,31C10692,38 10731,42 10763,41C10806,39 10829,43 10855,59C10880,73 10906,79 10944,78C10987,77 11007,82 11037,102C11062,119 11094,129 11131,132C11171,135 11196,144 11222,163C11241,178 11269,190 11284,190C11320,190 11369,212 11403,244C11418,258 11442,270 11456,270C11490,270 11557,305 11575,334C11585,350 11604,360 11631,364C11660,369 11683,382 11715,414C11739,438 11774,463 11794,470C11814,476 11847,501 11870,527C11892,553 11928,581 11950,591C11977,603 11999,624 12018,654C12033,679 12057,704 12073,711C12107,725 12158,782 12166,815C12169,829 12177,840 12182,840C12206,840 12250,884 12273,929C12286,956 12313,992 12333,1009C12353,1027 12377,1062 12387,1088C12396,1114 12419,1149 12437,1166C12471,1198 12490,1236 12490,1273C12490,1285 12502,1306 12516,1319C12549,1351 12569,1391 12572,1432C12573,1452 12584,1476 12602,1494C12628,1522 12637,1548 12644,1610C12645,1624 12658,1656 12673,1681C12692,1713 12700,1741 12700,1773C12700,1802 12708,1832 12722,1857C12738,1884 12745,1911 12745,1955C12745,1988 12750,2024 12757,2035C12776,2068 12782,2125 12772,2163C12767,2182 12766,2202 12770,2207C12787,2223 12798,2301 12789,2333C12783,2354 12783,2386 12791,2427C12802,2480 12801,2495 12788,2529C12775,2561 12774,2578 12782,2607C12792,2645 12789,2676 12769,2725C12762,2742 12758,2781 12759,2812C12761,2856 12757,2878 12740,2909C12724,2936 12719,2958 12722,2981C12728,3019 12716,3062 12688,3102C12677,3118 12670,3146 12670,3172C12670,3204 12662,3229 12640,3263C12624,3289 12610,3322 12610,3336C12610,3372 12587,3421 12556,3449C12540,3465 12530,3484 12530,3502C12530,3540 12504,3590 12470,3618C12451,3633 12439,3654 12435,3682C12430,3712 12416,3734 12385,3764C12362,3787 12338,3822 12331,3842C12324,3862 12302,3893 12282,3910C12262,3927 12241,3944 12237,3948C12233,3952 12219,3975 12206,4000C12192,4029 12170,4053 12145,4067C12124,4079 12100,4101 12092,4117C12070,4161 12030,4198 11994,4210C11976,4216 11958,4230 11955,4240C11946,4268 11890,4318 11855,4330C11838,4336 11813,4354 11801,4371C11774,4407 11723,4440 11693,4440C11680,4440 11662,4453 11649,4471C11626,4503 11561,4539 11524,4540C11513,4540 11493,4552 11479,4566C11446,4601 11408,4620 11367,4620C11345,4620 11326,4628 11314,4641C11285,4674 11245,4690 11197,4690C11168,4690 11148,4696 11139,4707C11118,4731 11066,4750 11018,4750C10992,4750 10961,4758 10940,4772C10915,4787 10886,4794 10840,4795C10804,4796 10755,4805 10730,4814C10695,4828 10678,4829 10646,4821C10616,4814 10600,4815 10579,4826C10547,4842 10468,4845 10441,4831C10429,4824 10409,4826 10378,4838C10335,4853 10328,4853 10278,4837C10236,4824 10216,4823 10185,4831C10152,4839 10135,4838 10100,4825C10073,4815 10030,4809 9992,4810C9944,4811 9921,4806 9894,4791C9871,4777 9841,4770 9808,4770C9774,4770 9743,4762 9711,4746C9686,4732 9644,4720 9617,4717C9587,4714 9555,4702 9530,4685C9508,4669 9488,4659 9485,4661C9470,4676 9341,5028 9345,5044C9347,5056 9324,5135 9292,5220L9235,5375L9019,5381L8987,5417C8957,5450 8922,5520 8921,5547C8920,5553 8935,5562 8953,5565C8970,5569 9019,5586 9060,5602C9265,5683 9377,5799 9424,5982C9459,6119 9468,6509 9439,6624C9433,6645 9430,6664 9433,6666C9435,6668 9458,6663 9485,6653C9529,6639 9534,6639 9545,6653C9555,6667 9563,6666 9622,6646C9658,6634 9716,6607 9750,6586L9812,6548L9840,6581C9856,6600 9869,6618 9870,6622C9870,6634 9786,6701 9740,6725C9715,6737 9676,6753 9653,6760C9629,6767 9610,6779 9610,6787C9610,6794 9594,6825 9574,6855L9538,6909L9564,6940C9596,6979 9604,7008 9598,7064C9591,7119 9566,7154 9514,7180C9442,7215 9426,7210 9233,7087C9157,7039 9034,6979 8794,6874C8482,6738 8459,6730 8443,6745C8412,6776 8270,6740 8225,6690C8209,6672 8211,6662 8265,6490C8314,6332 8321,6300 8319,6237C8318,6197 8322,6152 8329,6137C8344,6099 8343,6080 8326,6080C8319,6080 7661,5918 6864,5719C5301,5331 4773,5200 4761,5200C4757,5200 4749,5218 4743,5240L4733,5280L4847,5312L4853,5373C4856,5407 4855,5438 4851,5443C4847,5447 4808,5439 4764,5426C4721,5413 4684,5403 4683,5404C4682,5405 4610,5647 4525,5941C4439,6235 4328,6614 4279,6783C4229,6953 4191,7095 4195,7098C4198,7102 4351,7105 4533,7105C4815,7105 4877,7102 4943,7087C5059,7061 5137,7055 5155,7070C5197,7105 5151,7163 5049,7201C4943,7241 4818,7252 4325,7260C3873,7268 3754,7276 3545,7310C3512,7316 3420,7323 3340,7325C3222,7330 3188,7328 3159,7315ZM8969,6636C8978,6625 8989,6624 9013,6631C9061,6644 9062,6644 9131,6591C9189,6547 9202,6541 9263,6535L9332,6527L9370,6565C9408,6603 9409,6603 9414,6579C9426,6518 9429,6317 9420,6192C9394,5862 9310,5736 9044,5630C9005,5614 8958,5599 8938,5595C8905,5589 8903,5590 8888,5628L8873,5667L8956,5674C9238,5695 9407,5886 9386,6158C9378,6258 9365,6299 9315,6375C9272,6439 9118,6597 9076,6620C9022,6649 9043,6618 9157,6504C9222,6438 9290,6360 9307,6330C9369,6225 9374,6036 9319,5928C9292,5874 9218,5797 9166,5766C9106,5731 9021,5709 8935,5707L8859,5705L8747,6001C8685,6164 8622,6316 8607,6339C8591,6363 8572,6402 8565,6427L8551,6472L8688,6536C8763,6571 8848,6611 8875,6624C8933,6653 8953,6655 8969,6636ZM8110,5655C8110,5650 5895,2924 5793,2803L5749,2751L5702,2766C5676,2774 5600,2784 5533,2787C5465,2790 5410,2794 5410,2795C5410,2797 5036,4171 4909,4638C4875,4761 4850,4864 4854,4867C4867,4880 7721,5590 8015,5653C8044,5660 8110,5661 8110,5655ZM4598,4713C4607,4681 4606,4666 4590,4620C4553,4514 4566,4453 4664,4281C4740,4148 4812,3947 4925,3545C4978,3358 5048,3111 5080,2996C5113,2880 5138,2785 5137,2783C5135,2782 5061,2777 4972,2774L4810,2767L4810,2821C4810,2857 4803,2886 4790,2908C4776,2931 4770,2956 4771,2995C4772,3038 4767,3058 4748,3088C4731,3112 4721,3144 4718,3181C4715,3221 4706,3246 4687,3272C4672,3291 4660,3319 4660,3334C4660,3372 4637,3421 4606,3449C4592,3463 4580,3484 4580,3497C4580,3536 4549,3599 4520,3620C4501,3634 4491,3652 4486,3680C4481,3711 4468,3732 4436,3763C4413,3786 4388,3822 4381,3842C4374,3862 4352,3893 4332,3910C4312,3927 4291,3944 4287,3948C4283,3952 4269,3975 4256,4000C4242,4029 4220,4053 4195,4067C4174,4079 4150,4101 4142,4117C4134,4132 4114,4160 4097,4178L4066,4210L4096,4243C4397,4569 4569,4750 4580,4750C4584,4750 4592,4733 4598,4713ZM4724,4260C4728,4246 4715,4262 4695,4294C4607,4437 4588,4500 4610,4580L4622,4625L4670,4455C4696,4362 4720,4274 4724,4260ZM2550,4292C2550,4280 2421,3128 2417,3110C2416,3102 2404,3169 2391,3260C2379,3351 2342,3613 2309,3843C2277,4073 2250,4270 2250,4281C2250,4299 2259,4300 2400,4300C2483,4300 2550,4296 2550,4292ZM2745,4274C2876,4253 2873,4254 2867,4211C2864,4191 2825,4004 2780,3795C2736,3586 2679,3318 2654,3200C2613,3004 2566,2860 2544,2860C2540,2860 2532,2868 2525,2877C2514,2892 2509,2893 2487,2881C2473,2874 2457,2870 2452,2874C2446,2877 2439,2913 2435,2953C2430,3009 2444,3164 2499,3650C2538,3994 2570,4280 2570,4286C2570,4299 2601,4297 2745,4274ZM10500,4292C10500,4286 10390,3302 10373,3162C10370,3133 10366,3111 10365,3112C10362,3115 10354,3169 10265,3799C10229,4054 10200,4271 10200,4282C10200,4299 10211,4300 10350,4300C10433,4300 10500,4297 10500,4292ZM10695,4274C10828,4253 10823,4255 10816,4208C10812,4185 10773,3998 10729,3791C10685,3584 10629,3318 10604,3200C10561,2996 10555,2978 10492,2847C10445,2749 10424,2714 10419,2727C10416,2737 10405,2806 10395,2880L10378,3015L10449,3647C10488,3995 10520,4284 10520,4289C10520,4299 10560,4296 10695,4274ZM2269,3983C2292,3813 2333,3524 2359,3339C2400,3057 2406,2993 2398,2940C2394,2905 2388,2874 2385,2872C2382,2869 2368,2872 2353,2879C2329,2890 2324,2889 2308,2870C2290,2848 2290,2848 2256,2921C2230,2976 2192,3116 2110,3460C2048,3716 1981,3994 1960,4078L1922,4231L1944,4240C1978,4253 2153,4286 2200,4289L2226,4290L2269,3983ZM10214,4018C10235,3868 10274,3588 10302,3395C10345,3095 10351,3031 10346,2950C10336,2789 10328,2710 10321,2710C10318,2710 10282,2774 10243,2853C10173,2989 10168,3004 10116,3225C10042,3538 9956,3894 9910,4078L9872,4231L9894,4239C9928,4253 10103,4286 10150,4289L10176,4290L10214,4018ZM3045,4196C3115,4172 3174,4149 3178,4146C3184,4140 2659,3071 2652,3076C2650,3077 2680,3226 2719,3406C2757,3587 2813,3849 2842,3987C2875,4145 2899,4240 2907,4240C2913,4240 2976,4220 3045,4196ZM10995,4196C11065,4172 11124,4149 11128,4146C11134,4139 10608,3071 10601,3076C10599,3078 10609,3132 10624,3197C10653,3330 10799,4019 10827,4153C10837,4204 10849,4240 10857,4240C10863,4240 10926,4220 10995,4196ZM2030,3705C2097,3425 2160,3164 2170,3127C2180,3089 2184,3062 2180,3067C2173,3075 1702,3957 1646,4067L1620,4119L1652,4136C1705,4164 1894,4229 1901,4222C1904,4218 1962,3986 2030,3705ZM9875,4140C9894,4057 10117,3137 10126,3105C10142,3044 10100,3146 9997,3420C9933,3588 9843,3826 9796,3949C9749,4073 9713,4176 9716,4179C9727,4191 9845,4227 9851,4221C9854,4218 9865,4181 9875,4140ZM3273,4099C3344,4063 3470,3990 3470,3984C3470,3982 3412,3887 3340,3772L3210,3564L2919,3252C2759,3080 2625,2941 2622,2944C2616,2950 2633,2985 2970,3663C3099,3920 3205,4130 3207,4130C3209,4130 3239,4116 3273,4099ZM11215,4104C11287,4066 11420,3989 11420,3984C11420,3982 11267,3734 11079,3433L10738,2885L10631,2783C10573,2727 10522,2681 10519,2681C10516,2680 10528,2746 10546,2828L10578,2975L10866,3553C11024,3870 11156,4130 11159,4130C11162,4130 11188,4118 11215,4104ZM1909,3528C2085,3196 2215,2941 2221,2913C2236,2848 2220,2805 2185,2814C2169,2818 2158,2815 2153,2806C2146,2794 2136,2798 2100,2828C2068,2855 1960,3009 1702,3399C1507,3693 1346,3940 1343,3946C1335,3966 1587,4118 1601,4102C1605,4098 1743,3840 1909,3528ZM9459,3782C9504,3671 9540,3577 9540,3574C9540,3566 9300,3929 9293,3946C9286,3964 9362,4013 9371,3997C9375,3991 9415,3894 9459,3782ZM3428,3796C3360,3723 3304,3664 3302,3665C3299,3667 3352,3753 3457,3918L3490,3971L3520,3950L3550,3928L3428,3796ZM11588,3858C11633,3820 11670,3785 11670,3781C11670,3774 11048,3177 10852,2995C10803,2950 10823,2984 11086,3405C11244,3658 11388,3889 11407,3918L11440,3971L11473,3949C11490,3936 11542,3896 11588,3858ZM1647,3445C1823,3181 1970,2958 1975,2950C1979,2942 1968,2949 1949,2966C1930,2983 1733,3160 1510,3360C1287,3559 1101,3727 1096,3731C1083,3742 1115,3776 1224,3867C1273,3908 1316,3938 1320,3933C1324,3929 1471,3709 1647,3445ZM9431,3695C9585,3464 9601,3434 9704,3170L9722,3125L9693,3151C9678,3165 9530,3297 9365,3445C9200,3592 9059,3719 9051,3726C9038,3738 9039,3743 9061,3766C9109,3818 9263,3941 9270,3933C9274,3929 9347,3822 9431,3695ZM3674,3778C3517,3590 3420,3486 3308,3380C3180,3260 3178,3259 3255,3342C3526,3637 3686,3808 3693,3809C3698,3810 3689,3795 3674,3778ZM3791,3713C3849,3653 3940,3541 3939,3532C3938,3520 2955,2757 2903,2728C2833,2688 2760,2692 2760,2736C2760,2748 2756,2761 2751,2765C2733,2775 2780,2837 2843,2886C3001,3010 3207,3204 3363,3375C3473,3497 3731,3760 3740,3760C3743,3760 3766,3739 3791,3713ZM11741,3713C11799,3653 11890,3541 11889,3532C11889,3528 11661,3347 11382,3131L10875,2736L10736,2673C10660,2638 10596,2611 10594,2612C10593,2614 10627,2671 10670,2740L10748,2865L11217,3312C11474,3558 11687,3759 11690,3760C11693,3760 11716,3739 11741,3713ZM1551,3295C2007,2887 2114,2780 2090,2756C2085,2751 2080,2736 2080,2724C2080,2707 2071,2699 2046,2690C2019,2681 2005,2683 1966,2700C1931,2715 947,3426 886,3481C881,3485 888,3503 901,3522C939,3578 1060,3720 1069,3720C1074,3720 1291,3529 1551,3295ZM9387,3396L9745,3073L9813,2900C9850,2805 9879,2725 9876,2723C9872,2719 8875,3446 8836,3481C8831,3485 8838,3503 8851,3522C8889,3578 9011,3720 9020,3720C9024,3720 9189,3574 9387,3396ZM3988,3468C4046,3382 4112,3258 4104,3251C4099,3247 3875,3147 3606,3030C3336,2913 3091,2806 3061,2793C3030,2779 3009,2772 3013,2776C3032,2795 3946,3509 3952,3509C3956,3510 3972,3491 3988,3468ZM11938,3468C11993,3387 12062,3258 12053,3250C12049,3247 11827,3148 11560,3032C11293,2916 11048,2809 11015,2795C10982,2780 10958,2772 10963,2776C10981,2795 11896,3509 11902,3509C11906,3510 11922,3491 11938,3468ZM1354,3111C1610,2922 1819,2765 1817,2764C1814,2760 730,3197 722,3205C716,3211 757,3294 815,3393C847,3448 865,3468 874,3463C881,3458 1097,3300 1354,3111ZM9303,3111C9560,2922 9769,2765 9767,2764C9763,2760 8680,3197 8672,3205C8664,3212 8692,3268 8756,3378C8795,3443 8815,3468 8824,3463C8831,3458 9047,3300 9303,3111ZM4172,3113C4197,3048 4220,2984 4223,2970C4229,2945 4227,2944 3882,2833L3535,2721L3281,2710C2988,2698 2914,2698 2923,2706C2932,2715 4102,3228 4115,3229C4121,3230 4146,3177 4172,3113ZM12112,3137C12152,3037 12182,2949 12178,2945C12176,2944 11901,2854 11565,2745L10955,2546L10805,2535C10723,2529 10653,2525 10651,2527C10649,2528 10660,2540 10675,2552C10855,2695 10881,2712 11000,2765C11431,2956 12057,3229 12065,3229C12071,3230 12092,3188 12112,3137ZM1316,2939C1712,2779 1928,2687 1961,2663C1988,2644 2010,2626 2010,2623C2010,2620 2003,2612 1994,2605C1980,2595 1979,2590 1990,2570C2009,2534 1982,2519 1906,2526C1856,2531 625,2882 611,2896C600,2907 696,3180 711,3180C716,3180 988,3072 1316,2939ZM9267,2939C9596,2806 9874,2690 9884,2681C9902,2666 9938,2594 9955,2541L9962,2518L9879,2525C9812,2530 9667,2569 9180,2712C8842,2811 8563,2893 8561,2896C8549,2907 8645,3180 8661,3180C8666,3180 8939,3072 9267,2939ZM4254,2855C4268,2797 4274,2751 4268,2749C4260,2746 3634,2723 3632,2725C3627,2729 4201,2918 4221,2919C4233,2920 4242,2903 4254,2855ZM12203,2858C12221,2784 12245,2632 12239,2627C12234,2622 11057,2550 11053,2554C11051,2555 11125,2581 11217,2611C11310,2641 11558,2722 11770,2791C11982,2861 12162,2918 12171,2919C12183,2920 12192,2903 12203,2858ZM10390,2769C10401,2678 10401,2660 10387,2635L10372,2606L10356,2638C10341,2666 10341,2682 10352,2785C10358,2849 10367,2895 10370,2888C10374,2881 10383,2827 10390,2769ZM1182,2703C1494,2611 1748,2535 1747,2533C1743,2530 556,2571 552,2575C548,2579 580,2789 591,2833C596,2853 604,2870 608,2870C612,2870 870,2795 1182,2703ZM9147,2698C9451,2609 9698,2535 9697,2533C9693,2530 8506,2571 8502,2575C8498,2579 8530,2789 8541,2833C8550,2866 8555,2871 8573,2866C8585,2863 8844,2788 9147,2698ZM10509,2754C10491,2670 10481,2642 10461,2623L10435,2600L10432,2637C10429,2666 10439,2697 10476,2772C10502,2826 10526,2868 10528,2865C10530,2863 10522,2813 10509,2754ZM10314,2634C10308,2611 10300,2626 10259,2731C10232,2799 10210,2857 10210,2860C10210,2863 10235,2819 10265,2763C10308,2683 10319,2654 10314,2634ZM10617,2693C10578,2632 10543,2590 10526,2582C10489,2566 10489,2566 10496,2598C10502,2622 10669,2805 10678,2796C10680,2794 10652,2748 10617,2693ZM2130,2775C2137,2766 2138,2760 2132,2760C2127,2760 2120,2767 2116,2775C2113,2783 2112,2790 2114,2790C2116,2790 2123,2783 2130,2775ZM5160,2716C5160,2708 5163,2695 5166,2686C5171,2674 5166,2670 5148,2670C5131,2670 5119,2662 5112,2645C5105,2630 5092,2620 5079,2620C5065,2620 5055,2610 5047,2590C5041,2573 5027,2560 5015,2558C5002,2556 4992,2544 4986,2524C4981,2507 4967,2489 4956,2484C4944,2479 4934,2464 4932,2447C4930,2432 4920,2415 4909,2410C4897,2403 4890,2389 4890,2371C4890,2355 4883,2337 4875,2330C4867,2323 4860,2302 4860,2284C4860,2265 4856,2250 4851,2250C4837,2250 4830,2390 4843,2437C4852,2474 4852,2489 4838,2526C4826,2561 4824,2579 4833,2611C4840,2639 4840,2662 4832,2685L4822,2719L4894,2723C5090,2732 5160,2730 5160,2716ZM4285,2695L4291,2625L3698,2588C3373,2567 3105,2552 3103,2554C3101,2555 3178,2582 3273,2613L3445,2669L3810,2683C4011,2691 4200,2697 4230,2696L4285,2695ZM3358,2665C3355,2662 3269,2633 3166,2600C2925,2523 2839,2519 2856,2585C2861,2606 2858,2616 2845,2626C2831,2637 2830,2640 2841,2644C2849,2647 2961,2653 3090,2658C3219,2663 3334,2668 3344,2668C3355,2669 3361,2668 3358,2665ZM10695,2595C10626,2542 10589,2520 10568,2520C10504,2520 10555,2570 10675,2624C10730,2649 10779,2669 10784,2669C10788,2670 10748,2636 10695,2595ZM4300,2600L4300,2297L4188,2303C4126,2306 3812,2336 3490,2369C2966,2424 2904,2432 2886,2450C2861,2474 2869,2482 2939,2505C2981,2519 3127,2531 3569,2560C3886,2581 4180,2598 4223,2599L4300,2600ZM10480,2596C10480,2593 10476,2588 10470,2585C10465,2582 10460,2584 10460,2589C10460,2595 10465,2600 10470,2600C10476,2600 10480,2598 10480,2596ZM12250,2600L12250,2300L12198,2300C12169,2300 11880,2309 11555,2320L10965,2340L10817,2382C10736,2405 10673,2427 10677,2431C10682,2434 10743,2457 10814,2480L10943,2523L11519,2560C11836,2581 12130,2598 12173,2599L12250,2600ZM10530,2550C10530,2545 10525,2540 10519,2540C10514,2540 10512,2545 10515,2550C10518,2556 10523,2560 10526,2560C10528,2560 10530,2556 10530,2550ZM1040,2535C1263,2527 1531,2518 1635,2515C1740,2512 1840,2507 1858,2504L1892,2499L1848,2471C1808,2445 1720,2363 1720,2351C1719,2318 1700,2316 1130,2280C816,2261 557,2246 554,2249C552,2251 550,2320 550,2402L550,2550L593,2550C616,2550 817,2543 1040,2535ZM9165,2529L9795,2508L9893,2478C9972,2455 9993,2444 10002,2424C10008,2411 10011,2398 10009,2396C10007,2394 9962,2378 9910,2361L9815,2328L9165,2286C8808,2263 8512,2245 8508,2247C8503,2249 8500,2318 8500,2401C8500,2536 8502,2550 8518,2550C8527,2550 8819,2541 9165,2529ZM10849,2516C10847,2514 10795,2496 10734,2476C10656,2451 10614,2442 10591,2446C10554,2454 10553,2459 10586,2483C10609,2500 10632,2504 10834,2519C10845,2519 10851,2518 10849,2516ZM9975,2490C9982,2479 9966,2479 9930,2490C9906,2498 9906,2498 9937,2499C9954,2500 9972,2496 9975,2490ZM10570,2496C10570,2493 10566,2488 10560,2485C10555,2482 10550,2484 10550,2489C10550,2495 10555,2500 10560,2500C10566,2500 10570,2498 10570,2496ZM1970,2470C1982,2463 1982,2458 1966,2441C1948,2422 1948,2419 1964,2395C1980,2370 1980,2369 1953,2359C1894,2337 1808,2319 1772,2322L1735,2325L1790,2380C1839,2430 1918,2480 1945,2480C1951,2480 1962,2476 1970,2470ZM10847,2345C10852,2341 10847,2340 10837,2343C10827,2347 10773,2350 10717,2350C10624,2350 10612,2352 10585,2374L10555,2398L10589,2407C10616,2414 10646,2409 10731,2385C10791,2367 10843,2350 10847,2345ZM10030,2355C10030,2345 10020,2340 10003,2340C9987,2340 9957,2338 9935,2335L9895,2330L9945,2349C10007,2373 10030,2375 10030,2355ZM10699,2263C10749,2227 10789,2195 10787,2194C10783,2189 10587,2270 10572,2283C10565,2289 10554,2302 10549,2312C10540,2328 10543,2330 10573,2330C10600,2330 10628,2315 10699,2263ZM11568,2138C11908,2039 12187,1956 12189,1954C12195,1948 12169,1861 12132,1762C12101,1680 12094,1669 12076,1673C12064,1675 11793,1784 11472,1913L10888,2150L10777,2231C10715,2276 10661,2317 10655,2323C10648,2329 10698,2330 10798,2326L10952,2319L11568,2138ZM10053,2301C10057,2285 10037,2265 9961,2207C9868,2135 9849,2126 9277,1877C8954,1735 8686,1620 8682,1620C8669,1620 8561,1897 8571,1904C8573,1905 8753,1963 8970,2034C9187,2104 9462,2193 9580,2233C9749,2288 9813,2305 9880,2310C10037,2323 10047,2322 10053,2301ZM11720,2294C12003,2285 12238,2274 12242,2271C12250,2264 12226,2082 12209,2018C12204,1997 12195,1980 12190,1980C12180,1980 11062,2307 11045,2315C11040,2317 11073,2317 11120,2315C11167,2312 11437,2303 11720,2294ZM1988,2301C1997,2296 1999,2284 1994,2265C1989,2244 1991,2234 2004,2225C2018,2214 2014,2208 1968,2173C1913,2131 1724,2043 1713,2054C1703,2064 1697,2166 1704,2214L1711,2260L1788,2284C1865,2308 1964,2317 1988,2301ZM1757,2294C1754,2291 1745,2290 1738,2293C1730,2296 1733,2299 1744,2299C1755,2300 1761,2297 1757,2294ZM9705,2294C9669,2280 8583,1930 8573,1930C8559,1930 8556,1940 8536,2040C8518,2129 8506,2220 8511,2221C8518,2223 9655,2298 9685,2298C9702,2298 9711,2297 9705,2294ZM1690,2280C1690,2275 1688,2270 1686,2270C1683,2270 1446,2194 1158,2100C870,2007 630,1930 624,1930C604,1930 548,2202 564,2218C572,2225 1474,2286 1613,2289C1658,2289 1690,2286 1690,2280ZM10534,2270C10549,2265 10582,2226 10618,2173C10699,2052 10699,2050 10649,2094C10536,2194 10509,2223 10503,2251C10497,2283 10498,2284 10534,2270ZM10074,2245C10078,2234 10064,2222 10029,2204C10001,2190 9976,2181 9974,2183C9970,2186 10058,2260 10066,2260C10067,2260 10070,2253 10074,2245ZM1674,2139L1673,2028L1206,1824C950,1712 736,1620 732,1620C724,1620 636,1837 627,1880C621,1905 625,1906 833,1973C1066,2048 1675,2248 1675,2249C1675,2250 1675,2200 1674,2139ZM10270,2071C10243,2015 10218,1970 10216,1970C10215,1970 10224,2021 10238,2083C10257,2169 10269,2202 10289,2223L10315,2252L10318,2212C10320,2180 10311,2151 10270,2071ZM10520,2092C10535,2030 10546,1980 10544,1980C10543,1980 10516,2027 10486,2084C10439,2170 10431,2193 10436,2219L10443,2252L10467,2227C10484,2210 10499,2171 10520,2092ZM10395,2210C10408,2184 10409,2165 10398,2065C10392,2001 10383,1955 10380,1962C10376,1969 10367,2021 10360,2078C10350,2159 10350,2186 10360,2210C10367,2227 10374,2240 10376,2240C10378,2240 10386,2227 10395,2210ZM10744,2186L10877,2132L11396,1750C11681,1539 11917,1366 11919,1364C11930,1354 11748,1130 11730,1130C11724,1130 11503,1326 11237,1565C10784,1973 10751,2005 10695,2091C10600,2235 10598,2240 10605,2240C10608,2240 10671,2216 10744,2186ZM3223,2195L3542,2161L3888,2059C4079,2003 4237,1956 4239,1954C4252,1942 4155,1670 4138,1670C4132,1670 3863,1776 3541,1906C3014,2118 2867,2184 2844,2221C2836,2235 2888,2232 3223,2195ZM10239,2213C10238,2208 10199,2169 10152,2125C10063,2041 10061,2046 10137,2160C10161,2196 10243,2238 10239,2213ZM10057,2073C9999,1983 9959,1942 9594,1595C9375,1386 9165,1186 9127,1151L9060,1086L9019,1126C8997,1147 8951,1198 8918,1239C8861,1310 8859,1314 8877,1331C8887,1340 9117,1521 9388,1733C9847,2091 9889,2121 9983,2162C10080,2205 10084,2206 10102,2188C10119,2171 10118,2167 10057,2073ZM10720,2000C10741,1981 10916,1725 11110,1432C11415,972 11461,897 11449,885C11426,862 11217,739 11207,743C11202,744 11061,1002 10894,1315L10591,1885L10560,2015C10543,2087 10526,2154 10523,2165C10518,2183 10596,2117 10720,2000ZM2901,2141C2941,2123 3969,1370 3970,1358C3970,1354 3958,1337 3943,1321C3916,1292 3912,1291 3767,1280L3620,1268L3591,1292C3446,1414 2999,1827 2994,1844C2982,1882 2950,1914 2882,1956C2816,1996 2737,2081 2759,2088C2765,2090 2770,2104 2770,2120C2770,2142 2776,2151 2798,2158C2827,2169 2845,2166 2901,2141ZM10204,2023L10172,1875L9885,1298C9728,980 9595,720 9589,720C9569,720 9330,854 9330,866C9330,868 9484,1116 9671,1416L10013,1962L10119,2066C10177,2123 10228,2170 10231,2170C10234,2170 10222,2104 10204,2023ZM2073,2143C2082,2140 2090,2128 2090,2116C2090,2104 2094,2090 2100,2084C2106,2078 2101,2061 2084,2035C2051,1984 1909,1840 1894,1840C1879,1840 1773,1935 1760,1960C1742,1993 1998,2170 2040,2154C2048,2150 2063,2145 2073,2143ZM3880,2124C3965,2115 4035,2107 4035,2106C4035,2106 4044,2087 4056,2065L4076,2024L3881,2082C3706,2135 3631,2161 3700,2146C3714,2143 3795,2133 3880,2124ZM10351,1998C10363,1922 10369,1839 10367,1805C10360,1719 10229,556 10225,552C10221,548 10013,579 9965,591L9924,601L9986,893C10020,1054 10080,1338 10120,1524L10192,1863L10258,2002C10294,2078 10325,2138 10327,2136C10330,2134 10340,2072 10351,1998ZM10720,1263C10803,924 10870,638 10870,629C10870,615 10851,607 10783,591C10734,580 10668,568 10635,565L10575,558L10521,936C10492,1145 10451,1434 10431,1580L10394,1845L10411,1990C10420,2070 10428,2137 10429,2140C10430,2143 10462,2085 10500,2012L10571,1880L10720,1263ZM2734,2074C2739,2060 2738,2059 2725,2070C2708,2084 2706,2090 2719,2090C2724,2090 2731,2083 2734,2074ZM3590,1865C3884,1746 4127,1647 4129,1644C4143,1630 3994,1377 3977,1387C3970,1391 3772,1536 3535,1710C3299,1884 3085,2041 3060,2060C3035,2078 3024,2090 3035,2087C3046,2084 3296,1984 3590,1865ZM11543,1864C11838,1745 12080,1642 12080,1635C12080,1624 11956,1402 11942,1388C11937,1383 11767,1502 11564,1651C11361,1801 11143,1962 11080,2008C11017,2055 10974,2090 10985,2087C10996,2084 11247,1984 11543,1864ZM1815,2054C1754,2003 1739,1995 1729,2011C1722,2022 1734,2031 1778,2052C1849,2085 1852,2085 1815,2054ZM2150,2076C2150,2074 2143,2067 2135,2060C2122,2049 2121,2050 2126,2064C2131,2078 2150,2087 2150,2076ZM9790,2076C9790,2072 8861,1346 8850,1342C8835,1337 8681,1585 8692,1596C8696,1599 9762,2070 9788,2079C9789,2080 9790,2078 9790,2076ZM2196,2026C2225,2033 2224,2038 2204,1953C2196,1916 2190,1872 2193,1855C2196,1839 2191,1813 2184,1798C2172,1775 2163,1770 2132,1770C2093,1770 1983,1793 1973,1803C1963,1814 2063,1963 2110,2007C2145,2040 2157,2046 2163,2034C2168,2025 2179,2022 2196,2026ZM1700,2006C1700,2004 1703,1995 1706,1987C1710,1976 1594,1880 1310,1659C1089,1486 905,1344 900,1342C885,1337 731,1585 742,1596C750,1604 1675,2008 1688,2009C1694,2010 1700,2008 1700,2006ZM4247,1984C4244,1981 4235,1980 4228,1983C4220,1986 4223,1989 4234,1989C4245,1990 4251,1987 4247,1984ZM1769,1902C1794,1875 1827,1844 1842,1833L1870,1812L1772,1718C1719,1666 1576,1530 1455,1415C1334,1300 1207,1179 1173,1146L1110,1086L1069,1125C1047,1147 1001,1198 968,1239C919,1300 911,1315 922,1326C940,1344 1714,1949 1719,1950C1722,1950 1744,1928 1769,1902ZM4852,1922C4864,1912 4868,1899 4864,1883C4860,1867 4864,1852 4876,1839C4886,1827 4894,1808 4892,1796C4890,1780 4897,1768 4914,1756C4931,1746 4940,1730 4940,1715C4940,1697 4948,1687 4964,1680C4978,1675 4990,1661 4992,1648C4994,1636 5006,1620 5019,1614C5032,1607 5047,1592 5054,1579C5060,1566 5076,1554 5088,1552C5101,1550 5116,1538 5122,1524C5130,1507 5141,1500 5160,1500C5179,1500 5193,1492 5204,1475C5216,1456 5226,1451 5243,1455C5258,1459 5272,1455 5284,1441C5297,1426 5311,1422 5334,1426C5359,1430 5361,1429 5345,1421C5323,1411 4611,1346 4603,1354C4600,1356 4603,1367 4609,1378C4614,1388 4621,1414 4623,1434C4625,1456 4637,1481 4653,1498C4676,1522 4707,1617 4695,1628C4693,1630 4705,1653 4721,1678C4742,1712 4750,1736 4750,1771C4750,1800 4758,1832 4769,1852C4779,1870 4791,1899 4795,1917C4802,1951 4817,1952 4852,1922ZM11300,1480C11523,1280 11707,1115 11709,1113C11717,1107 11639,1031 11561,968C11520,936 11484,912 11479,917C11471,926 10840,1875 10826,1900C10821,1908 10835,1899 10856,1879C10877,1859 11077,1680 11300,1480ZM1974,1860C1959,1838 1940,1820 1932,1820C1921,1820 1929,1834 1955,1860C1976,1882 1995,1900 1997,1900C1999,1900 1988,1882 1974,1860ZM9633,1393C9459,1113 9315,883 9314,881C9304,869 9077,1055 9082,1072C9085,1080 9941,1900 9947,1900C9948,1900 9806,1672 9633,1393ZM2714,1832C2716,1828 2712,1817 2705,1807C2690,1787 2677,1799 2686,1824C2693,1841 2706,1845 2714,1832ZM2567,1804C2564,1801 2555,1800 2548,1803C2540,1806 2543,1809 2554,1809C2565,1810 2571,1807 2567,1804ZM1914,1778C1913,1767 1388,911 1364,881C1354,869 1127,1055 1132,1071C1140,1094 1886,1799 1900,1797C1908,1795 1914,1787 1914,1778ZM2412,1788C2408,1784 2363,1778 2312,1774C2231,1768 2220,1769 2225,1783C2230,1795 2249,1798 2325,1797C2377,1796 2416,1792 2412,1788ZM2513,1793C2500,1791 2480,1791 2468,1793C2455,1795 2465,1797 2490,1797C2515,1797 2525,1795 2513,1793ZM10905,1252C11058,965 11181,728 11179,726C11169,717 10942,631 10921,628C10898,625 10895,630 10874,715C10834,881 10761,1183 10696,1455C10660,1604 10626,1740 10621,1759C10615,1778 10615,1789 10619,1784C10624,1779 10752,1540 10905,1252ZM2091,1743C2123,1740 2150,1736 2150,1735C2150,1721 1647,720 1639,720C1619,720 1380,854 1380,866C1380,871 1927,1749 1941,1766C1948,1775 1961,1774 1991,1764C2013,1756 2058,1747 2091,1743ZM2664,1704C2679,1640 2680,1626 2669,1619C2661,1614 2619,1589 2575,1562C2531,1535 2494,1513 2493,1514C2489,1517 2460,1718 2460,1738C2460,1756 2501,1766 2631,1778C2642,1780 2651,1760 2664,1704ZM2718,1662C2704,1645 2698,1653 2683,1708C2664,1782 2669,1789 2699,1730C2720,1690 2725,1671 2718,1662ZM3296,1529C3449,1391 3576,1275 3578,1270C3579,1266 3528,1260 3463,1256C3398,1252 3338,1247 3329,1244C3318,1241 3270,1305 3150,1484C3014,1689 2989,1733 2994,1755C2998,1769 3004,1780 3008,1780C3013,1780 3142,1667 3296,1529ZM10095,1509C10065,1364 10009,1103 9973,930C9937,757 9905,613 9904,611C9895,600 9621,694 9620,708C9619,718 10144,1777 10148,1774C10150,1773 10126,1653 10095,1509ZM2410,1734C2410,1714 2380,1466 2377,1465C2376,1464 2332,1451 2280,1435C2228,1420 2175,1398 2163,1387C2133,1361 2133,1359 2178,1565L2215,1735L2285,1741C2411,1751 2410,1751 2410,1734ZM2154,1550L2116,1369L2083,1375C2044,1382 2043,1378 2071,1311L2093,1260L2025,937C1987,760 1955,613 1954,611C1944,599 1670,696 1670,711C1670,728 2181,1742 2187,1736C2190,1733 2175,1649 2154,1550ZM2455,1616C2464,1551 2470,1497 2468,1496C2454,1488 2407,1470 2405,1472C2403,1474 2409,1535 2417,1608C2426,1681 2434,1739 2436,1738C2437,1736 2446,1682 2455,1616ZM10480,1084C10518,809 10550,576 10550,567C10550,552 10534,550 10400,550C10318,550 10250,553 10250,558C10250,562 10279,825 10315,1143C10351,1461 10381,1727 10381,1733C10383,1757 10411,1573 10480,1084ZM3131,1474C3214,1350 3280,1247 3278,1245C3273,1240 2999,1217 2996,1221C2989,1229 2810,1567 2810,1572C2810,1575 2838,1596 2873,1618C2907,1641 2941,1668 2948,1680C2955,1691 2965,1700 2970,1700C2975,1700 3048,1598 3131,1474ZM2882,1389C2930,1299 2970,1222 2970,1219C2970,1216 2942,1212 2908,1211C2873,1210 2836,1208 2825,1207C2808,1205 2801,1223 2769,1355C2748,1438 2731,1512 2731,1521C2730,1537 2766,1561 2784,1556C2790,1555 2833,1480 2882,1389ZM2745,1370C2764,1291 2780,1221 2780,1214C2780,1203 2697,1192 2570,1187L2536,1185L2524,1270C2505,1402 2504,1397 2558,1424C2584,1438 2628,1464 2655,1483C2683,1502 2706,1517 2707,1516C2708,1515 2725,1449 2745,1370ZM2509,1214C2510,1184 2508,1182 2464,1176C2390,1166 2390,1166 2396,1203C2399,1220 2407,1245 2413,1258C2421,1275 2421,1283 2412,1292C2386,1318 2398,1349 2443,1368L2485,1387L2497,1316C2503,1277 2509,1231 2509,1214ZM3864,1218C3819,1163 3785,1130 3775,1130C3769,1130 3742,1152 3715,1180L3667,1229L3741,1233C3782,1234 3830,1237 3849,1238L3883,1240L3864,1218ZM2135,1188C2164,1143 2199,1120 2271,1100C2328,1084 2335,1080 2333,1059C2327,992 2278,555 2276,552C2270,547 2052,581 2014,593L1974,605L2040,912C2076,1082 2107,1220 2110,1220C2113,1219 2124,1205 2135,1188ZM3698,1168C3729,1139 3757,1114 3759,1112C3767,1107 3687,1030 3611,968C3570,936 3534,912 3529,917C3525,921 3481,986 3431,1062L3342,1198L3438,1205C3492,1208 3542,1213 3550,1214C3615,1228 3641,1220 3698,1168ZM3420,1039C3501,918 3511,897 3499,885C3476,862 3267,739 3257,743C3245,747 3019,1170 3028,1171C3129,1183 3308,1194 3316,1188C3322,1183 3369,1117 3420,1039ZM3115,949C3180,828 3230,728 3229,727C3180,697 2958,618 2949,628C2944,634 2820,1136 2820,1153C2820,1158 2844,1161 2967,1168C2998,1170 2999,1169 3115,949ZM2825,1038C2880,808 2920,645 2925,629C2931,612 2895,601 2745,574C2611,550 2630,520 2586,838C2565,990 2547,1120 2546,1125C2545,1135 2628,1145 2741,1148L2798,1150L2825,1038ZM2562,860C2582,714 2599,585 2600,573C2600,550 2599,550 2450,550C2359,550 2300,554 2300,560C2300,576 2350,1013 2355,1048C2359,1067 2367,1080 2375,1080C2383,1080 2390,1089 2390,1099C2390,1122 2409,1129 2474,1127L2524,1125L2562,860Z" style="fill-rule:nonzero;"/>
    </g>
</svg>
