<svg xmlns="http://www.w3.org/2000/svg" width="500pt" height="500pt" viewBox="80 55 410 400"><path d="M433.549 420.035c-.814-1.723-9.093-6.46-11.39-9.619-2.297-3.159-4.45-3.78-4.977-2.154 0 0-4.546-8.949-4.498-9.762.048-.814 1.914-1.914 1.1-4.164-.813-2.249-8.566-23.545-12.3-35.509-3.731-11.964-12.728-17.228-15.217-26.417-2.488-9.188-10.337-18.28-10.337-18.28s1.245-2.298-1.148-8.423c-2.393-6.126-5.17-20.674-4.882-25.842.287-5.169-1.722-10.433-1.722-10.433s1.914-20.578-7.18-35.7c0 0 17.229-24.12 17.134-26.226-.096-2.106-3.733-34.456-3.733-34.456s9.284-7.083 6.125-23.163c0 0 2.489 6.062.894 15.378 0 0 3.382-7.912-.957-20.099 0 0 2.999 5.68 4.083 13.91 0 0 2.106-10.975-8.422-28.203 0 0 8.103 11.74 9.954 18.25 0 0-2.361-14.74-10.656-29.034-3.747-6.455-7.064-15.278-10.57-23.856l.06-.01c-.025-.003-.045-.012-.07-.015a273.865 273.865 0 0 0-2.605-6.193c.529-.414 1.472-.808 1.992-1.183 4.847-3.49 6.904-10.853 4.847-16.785-.783-2.257-.993-4.507 1.303-6.46 2.804-2.387 2.347-4.314-1.111-5.75-6.844-2.845-13.91-4.969-21.214-6.248-7.822-1.37-15.436-.722-22.613 2.852-5.748 2.863-10.423 6.92-12.917 13.026-1.691 4.142-.818 6.56 2.97 8.891.559.343 1.59.442 1.487 1.206-.207 1.527.174 3.096.478 4.662.375 1.925.619 3.842-.482 5.663a6.19 6.19 0 0 1-.866 1.131c-.695.717-1.103 1.715-1.637 2.586-.475.775-.523 1.684.218 2.156a5.658 5.658 0 0 1 1.377 1.224c1.654 2.033 1.453 4.806 2.013 7.253.057.248.125.49.2.73.323 1.687 1.287 6.541 1.994 8.31.86 2.152 4.21 3.205 8.135 2.774 0 0 4.132 3.717 4.897 16.734 0 0-3.062 6.253-10.783 15.505s-10.337 17.42-10.975 21.823c-.638 4.402-.702 10.911-.702 10.911l-4.148-3.254s-.685-7.163-1.355-8.98c-.671-1.82-4.308-6.27-4.308-6.27l-2.536-1.006v-5.455h1.276v-1.005l-.558-.27s-2.41-2.538-7.864-2.538c-5.456 0-8.487 2.68-8.487 2.68l-.83.351v1.404h.862v3.35s-1.507.67-2.058 1.507c-.55.838-.215 2.345-.143 2.561.07.215.55.933.55.933s-.814 1.531-.933 3.04a1.88 1.88 0 0 0 1.148 1.961s-.646 2.153-.36 3.278c.289 1.125 1.629 1.292 1.629 1.292s-.264 2.584.07 4.044c.336 1.46 2.25 1.292 2.25 1.292s3.733 2.584 7.562 4.977c3.828 2.393 7.992 2.154 8.71 2.536.717.383 6.89 8.088 6.89 8.088l-1.407 11.246.307 1.292 6.796-1.483.127 8.821-1.34.32-.32 12.89s-1.34 34.264.065 48.43c1.404 14.164 11.103 49.131 13.4 66.104 2.297 16.973 0 19.398.766 28.203.765 8.806 2.233 19.047 1.18 27.565-1.053 8.52-.766 12.54-.383 14.55.383 2.01.096 5.071.096 5.071h.86s-1.34 4.834-2.822 7.992c0 0-.766-.669-1.675-.622-.91.048-1.484 1.005-2.25 2.393-.765 1.388-7.561 6.174-13.686 7.992-6.126 1.82-8.184 3.494-8.184 3.494s-6.7-.144-9.427.67c-2.728.813-4.786 4.067-4.786 5.79 0 1.723 7.274 5.264 21.63 7.18 14.358 1.913 37.377 2.2 39.674 1.434 2.297-.765-.766-6.604-.287-13.447.478-6.844-.431-8.902-2.345-8.47 0 0 1.388-14.693 2.01-15.315.622-.622 3.54-1.053 3.54-1.053v-7.657s.719-2.919 1.038-3.557c.319-.638 2.265-12.762 2.456-32.383.192-19.62-.382-31.297.575-40.294 0 0 7.37 6.572 12.857 19.397 5.488 12.826 10.209 12.57 13.272 18.25 3.063 5.678 3.637 12.314 6.572 15.57 2.936 3.253 4.977 6.698 4.722 11.101-.255 4.403 3.19 7.02 5.105 7.083 0 0 .478 2.01 1.372 2.393a5.907 5.907 0 0 0 1.659.446s.383 7.258.335 11.996c0 0-1.915-1.483-3.59.335-1.674 1.82.192 4.355.958 7.944.765 3.59-1.15 12.54-3.207 14.118-2.057 1.58-8.566 3.015-9.332 6.604-.765 3.59 2.25 5.551 4.547 6.078 2.297.526 11.15 2.153 19.286-3.78 8.135-5.935 22.54-21.393 24.119-24.79 1.579-3.398 1.867-3.685 1.053-5.408M254.444 387.988c.273-.03.537-.032.78.016 0 0-1.695-1.695-3.632-2.18-1.405-.35-4.107-.766-6.392-.782-.704-.946-2.009-2.067-3.788-3.111-4.293-2.52-7.116-5.258-11.088-9.14-4.056-3.963-20.354-16.29-30.109-25.348-9.755-9.06-25.434-18.813-25.434-18.813l.697-4.685c.697-4.686 1.046-5.767 2.788-13.432 1.742-7.665 3.281-18.9 5.72-24.422 2.146-4.86 7.047-11.573 9.565-19.98 2.96.013 4.817.026 4.817.026s1-19.84 0-27.167c-.999-7.327-2.332-26.312-2.928-37.102-.597-10.79-1.402-26.18 0-33.09 1.402-6.912-4.399-28.393-8.729-36.053-4.33-7.661-18.293-18.22-20.317-20.983-.812-1.11-3.026-1.38-5.554-1.156-1.056-1.688-1.899-3.205-2.237-4.21-.276-.816-.474-1.775-.615-2.783.62-1.93-1.169-3.847-.556-4.747 1.095-1.605 1.313-5.015 1.968-7.825l1.458-.595c2.794-.718 4.867-4.394 5.75-6.87 1.035-2.907 1.95-9.903 1.863-12.94-.217-7.624-8.338-13.262-16.135-15.79-27.265-7.61-39.224 5.763-43.602 16.86-1.276 5.038.385 9.905 4.467 10.618 0 0 1.367.343 3.415.654-.073.357-.13.67-.167.912-.299 2.038.036 6.02.086 6.48.05.463-2.713 4.283-2.843 5.757-.13 1.474 3.174 1.682 3.174 1.682s.488 1.235.143 1.759c-.345.525-.156 1.393.73 1.515.887.122 1.741.39 1.741.39s-1.51.179-1.449 1.53c.061 1.354.72 1.472.72 1.472s.31 3.336.56 5.318c.25 1.983 2.846 2.674 6.892 2.433 4.046-.241 5.266-1.126 6.841-.326 1.574.8 5.176 9.133 5.176 9.133l.27.85c-3.614 2.689-6.392 5.066-7.174 6.16-1.665 2.332-5.555 11.363-8.552 20.688-2.998 9.326-5.995 39.967-6.66 54.423-.199 4.288-.279 10.893-.295 18.063-3.09 7.463-5.746 14.235-6.062 16.097-.712 4.208-.63 9.198-1.583 12.673-.953 3.475-3.85 14.766-3.85 14.766s.126.112 1.187.593c-.53 1.972-.829 3.242-2.155 4.665-1.773 1.903-4.139 6.8-4.797 9.24-.657 2.443-.054 4.82.95 7.24.821 1.986 1.297 3.398 3.715 6.313 1.268 1.528 2.482.87 2.482.87s.51.513 2.133 1.575c1.623 1.06 3.903 2.335 4.763 1.518.86-.817-.6-2.258-.6-2.258 1.364.599 3.633 1.048 4.135-.17.503-1.216-1.55-2.856-1.55-2.856 2.488.986 2.581-.147 2.701-1.193.12-1.046-1.226-2.63-1.778-3.807-.552-1.18-1.32-3.471-1.384-4.92-.062-1.447 2.08-3.006 2.974-6.202.405-1.448.22-3.61.267-5.733.753.176 1.165.243 1.165.243s1.771-1.268 2.213-3.602c.19-1 1.011-2.77 1.937-4.592l.074.023a243.245 243.245 0 0 0-1.862 15.15c-1.53 17.058-4.08 47.737-3.826 54.414.255 6.677.765 12.965 3.571 19.853 2.806 6.888 10.97 45.153 11.735 50.765.765 5.612-.766 18.367-.51 21.437.255 3.07-1.02 7.644-1.53 9.233-.123.379.04.749.438 1.143-2.865 1.429-7.65 3.756-9.52 4.305-2.745.808-17.92 5.812-19.859 5.973-1.937.16-2.906 4.36-2.098 7.105.807 2.744 9.686 4.359 17.755 5.004 8.07.646 37.298-.322 41.14-1.614 3.84-1.292 5.2-1.453 4.392-4.198-.808-2.744.484-4.036 0-6.297a7.493 7.493 0 0 0-.227-.765c.488-.874.543-2.313.376-3.316-.256-1.531-.766-13.01-1.02-20.663-.256-7.653-4.593-45.918-5.868-52.041-.98-4.708-3.168-12.58-4.609-16.664 5.84 4.145 12.265 7.574 16.387 10.442 8.014 5.575 31.008 27.873 37.976 32.053 6.97 4.18 12.757 11.457 15.545 12.502.946.355 1.507.385 2.066.089.371 1.343.808 2.59 1.034 3.722.726 3.632 3.026 7.869 2.18 13.596-.849 5.726-3.875 15.459-2.907 16.79.686.944 2.464 2.244 4.132 2.196.002.002.003.007.005.008 1.138.978 4.66-.694 7.908-4.254 4.127-4.524 9.35-10.437 13.61-19.294 2.392-4.977 4.662-10.775 6.064-15.256 1.773-5.665 3.051-12.767.74-14.657-.379-.31-.908-.446-1.52-.453"/></svg>